# xmcd
#
# Track frame offsets: 
#        150
#        15793
#        33098
#        46944
#        61974
#        80253
#        96003
#        112882
#        124132
#        139813
#        151957
#        168645
#        184579
#        204176
#
# Disc length: 2792 seconds
#
# Revision: 3
# Processed by: cddbd v1.5.2PL0 Copyright (c) Steve Scherf et al.
# Submitted via: ExactAudioCopyFreeDBPlugin 1.0
#
DISCID=a10ae60e
DTITLE=Various Christmas - Duck The Halls - A Robertson Family Christm
DTITLE=as
DYEAR=2013
DGENRE=Christmas
TTITLE0=Willie Roberts - Ragin Cajun Redneck Christmas
TTITLE1=Missy Robertson - I'll Be Home For Christmas
TTITLE2=Si Robertson - You're A Mean One, Mr. Grinch
TTITLE3=Miss Kay, Phil Robertson and George Strait - Christmas Cookies
TTITLE4=Sadie Robertson and Alison Krauss - Away In A Manger
TTITLE5=Willie Robertson and Luke Bryan - Hairy Christmas
TTITLE6=Missy, Jase Robertson - Baby, It's Cold Outside
TTITLE7=The Robertson Family - Duck The Halls
TTITLE8=Reed Robertson - Camouflage And Christmas Lights
TTITLE9=Sadie, Uncle Si Robertson - Rudolph The Red-Nosed Reindeer
TTITLE10=Si Robertson - The Night Before Christmas
TTITLE11=Missy Robertson and Josh Turner - Why I Love Christmas
TTITLE12=The Robertson Family - Silent Night
TTITLE13=The Robertson Family - Phils Prayer, Willies Closing
EXTD=YEAR: 2013
EXTT0=
EXTT1=
EXTT2=
EXTT3=
EXTT4=
EXTT5=
EXTT6=
EXTT7=
EXTT8=
EXTT9=
EXTT10=
EXTT11=
EXTT12=
EXTT13=
PLAYORDER=
